<svg xmlns="http://www.w3.org/2000/svg" viewBox="0 0 300 300" width="300" height="300">
<!-- Костяной колосс — кадр move_2: bone_coloss -->
<g transform="scale(3)">
<ellipse cx="50" cy="94" rx="24" ry="4" fill="rgba(0,0,0,0.28)"/>
<g transform="translate(0 1.5) rotate(4 50 90)">
<line x1="45" y1="60" x2="36" y2="78" stroke="#e8e4d8" stroke-width="4"/>
<line x1="36" y1="78" x2="36" y2="92" stroke="#e8e4d8" stroke-width="3.4"/>
<line x1="36" y1="92" x2="30" y2="93" stroke="#e8e4d8" stroke-width="3"/>
<line x1="55" y1="60" x2="62" y2="76" stroke="#f4efe1" stroke-width="4"/>
<line x1="62" y1="76" x2="65" y2="87" stroke="#f4efe1" stroke-width="3.4"/>
<line x1="65" y1="87" x2="71" y2="88" stroke="#f4efe1" stroke-width="3"/>
<ellipse cx="50" cy="60" rx="9" ry="4.5" fill="#e8e4d8" stroke="#1a1a1a" stroke-width="1.5"/>
<path d="M40 38 Q50 42 60 38" fill="none" stroke="#e8e4d8" stroke-width="3" stroke-linecap="round"/>
<path d="M42 40 Q50 44 58 40" fill="none" stroke="#f4efe1" stroke-width="1.6" stroke-linecap="round"/>
<path d="M40 42.6 Q50 46.6 60 42.6" fill="none" stroke="#e8e4d8" stroke-width="3" stroke-linecap="round"/>
<path d="M42 44.6 Q50 48.6 58 44.6" fill="none" stroke="#f4efe1" stroke-width="1.6" stroke-linecap="round"/>
<path d="M40 47.2 Q50 51.2 60 47.2" fill="none" stroke="#e8e4d8" stroke-width="3" stroke-linecap="round"/>
<path d="M42 49.2 Q50 53.2 58 49.2" fill="none" stroke="#f4efe1" stroke-width="1.6" stroke-linecap="round"/>
<path d="M40 51.8 Q50 55.8 60 51.8" fill="none" stroke="#e8e4d8" stroke-width="3" stroke-linecap="round"/>
<path d="M42 53.8 Q50 57.8 58 53.8" fill="none" stroke="#f4efe1" stroke-width="1.6" stroke-linecap="round"/>
<path d="M40 56.4 Q50 60.4 60 56.4" fill="none" stroke="#e8e4d8" stroke-width="3" stroke-linecap="round"/>
<path d="M42 58.4 Q50 62.4 58 58.4" fill="none" stroke="#f4efe1" stroke-width="1.6" stroke-linecap="round"/>
<line x1="50" y1="34" x2="50" y2="58" stroke="#f4efe1" stroke-width="3"/>
<circle cx="50" cy="38" r="1.6" fill="#e8e4d8"/>
<circle cx="50" cy="44" r="1.6" fill="#e8e4d8"/>
<circle cx="50" cy="50" r="1.6" fill="#e8e4d8"/>
<circle cx="50" cy="56" r="1.6" fill="#e8e4d8"/>
<path d="M44 64 q4 6 0 10 q-4 -4 0 -10 Z" fill="#aeb8c4" stroke="#1a1a1a" opacity="0.8" stroke-width="1.5" stroke-linejoin="round"/>
<line x1="62" y1="40" x2="66" y2="50" stroke="#e8e4d8" stroke-width="3.6"/>
<line x1="66" y1="50" x2="78" y2="54" stroke="#e8e4d8" stroke-width="3.2"/>
<circle cx="78" cy="54" r="3" fill="#f4efe1"/>
<line x1="38" y1="40" x2="34" y2="50" stroke="#f4efe1" stroke-width="3.6"/>
<line x1="34" y1="50" x2="26" y2="50" stroke="#f4efe1" stroke-width="3.2"/>
<circle cx="26" cy="50" r="3" fill="#f4efe1"/>
<line x1="78" y1="54" x2="99.1" y2="65.5" stroke="#aeb8c4" stroke-width="4.6"/>
<rect x="94.1" y="58.5" width="10" height="14" fill="#96542e" rx="2"/>
<circle cx="99.1" cy="65.5" r="1.4" fill="#f4efe1"/>
<polygon points="42,38 58,36 60,46 44,48" fill="#aeb8c4" stroke="#1a1a1a" stroke-width="1.5" stroke-linejoin="round"/>
<polygon points="40,50 56,52 54,58 42,56" fill="#aeb8c4" stroke="#1a1a1a" stroke-width="1.5" stroke-linejoin="round"/>
<polygon points="58,52 70,50 72,58 60,58" fill="#aeb8c4" stroke="#1a1a1a" stroke-width="1.5" stroke-linejoin="round"/>
<circle cx="46" cy="42" r="1.2" fill="#96542e"/>
<circle cx="56" cy="44" r="1.2" fill="#96542e"/>
<circle cx="46" cy="54" r="1.2" fill="#96542e"/>
<circle cx="66" cy="54" r="1.2" fill="#96542e"/>
<ellipse cx="51.2" cy="25" rx="11" ry="10" fill="#f4efe1" stroke="#1a1a1a" stroke-width="2"/>
<ellipse cx="55.2" cy="27" rx="5" ry="4" fill="#e8e4d8" opacity="0.6"/>
<ellipse cx="46.8" cy="23.5" rx="2.6" ry="2.2" fill="#1a1a1a"/>
<ellipse cx="55.6" cy="23.5" rx="2.6" ry="2.2" fill="#1a1a1a"/>
<circle cx="46.8" cy="23.5" r="1.1" fill="#e04a3a" opacity="0.9"/>
<circle cx="55.6" cy="23.5" r="1.1" fill="#e04a3a" opacity="0.9"/>
<line x1="45.2" y1="30" x2="57.2" y2="30" stroke="#1a1a1a" stroke-width="2"/>
<line x1="46.2" y1="30" x2="46.2" y2="33" stroke="#f4efe1" stroke-width="1.6"/>
<line x1="48.7" y1="30" x2="48.7" y2="33" stroke="#f4efe1" stroke-width="1.6"/>
<line x1="51.2" y1="30" x2="51.2" y2="33" stroke="#f4efe1" stroke-width="1.6"/>
<line x1="53.7" y1="30" x2="53.7" y2="33" stroke="#f4efe1" stroke-width="1.6"/>
<line x1="56.2" y1="30" x2="56.2" y2="33" stroke="#f4efe1" stroke-width="1.6"/>
</g>
<line x1="49.6" y1="50" x2="52.1" y2="50.7" stroke="#1a1a1a" stroke-width="1.1"/>
<line x1="38.3" y1="46.1" x2="40.5" y2="47" stroke="#1a1a1a" stroke-width="1.1"/>
<line x1="41.8" y1="56.2" x2="46.3" y2="55.6" stroke="#1a1a1a" stroke-width="1.1"/>
<line x1="49" y1="57.5" x2="52.6" y2="57.5" stroke="#1a1a1a" stroke-width="1.1"/>
<line x1="53.4" y1="46.3" x2="57.8" y2="45.8" stroke="#1a1a1a" stroke-width="1.1"/>
<line x1="47.2" y1="49.1" x2="50.8" y2="49" stroke="#1a1a1a" stroke-width="1.1"/>
<line x1="44.4" y1="39.9" x2="48.6" y2="39.4" stroke="#1a1a1a" stroke-width="1.1"/>
<line x1="52.5" y1="53.2" x2="54.6" y2="54.1" stroke="#1a1a1a" stroke-width="1.1"/>
<line x1="52.1" y1="36.7" x2="56.8" y2="35.9" stroke="#1a1a1a" stroke-width="1.1"/>
<line x1="52.1" y1="35.6" x2="56.3" y2="35.1" stroke="#1a1a1a" stroke-width="1.1"/><line x1="56.3" y1="35.1" x2="58.3" y2="37.6" stroke="#1a1a1a" stroke-width="0.9"/>
<line x1="50.6" y1="46.3" x2="53.4" y2="46.7" stroke="#1a1a1a" stroke-width="1.1"/><line x1="53.4" y1="46.7" x2="55.4" y2="48.3" stroke="#1a1a1a" stroke-width="0.9"/>
<line x1="40.4" y1="54.5" x2="43.2" y2="54.9" stroke="#1a1a1a" stroke-width="1.1"/><line x1="43.2" y1="54.9" x2="45.2" y2="56.5" stroke="#1a1a1a" stroke-width="0.9"/>
<line x1="45.1" y1="45.2" x2="48.2" y2="45.5" stroke="#1a1a1a" stroke-width="1.1"/><line x1="48.2" y1="45.5" x2="50.2" y2="47.2" stroke="#1a1a1a" stroke-width="0.9"/>
<line x1="58.4" y1="57.2" x2="63.2" y2="56.3" stroke="#1a1a1a" stroke-width="1.1"/>
<line x1="41" y1="53.1" x2="44.9" y2="52.8" stroke="#1a1a1a" stroke-width="1.1"/><line x1="44.9" y1="52.8" x2="46.9" y2="55.1" stroke="#1a1a1a" stroke-width="0.9"/>
<line x1="56.6" y1="53" x2="59.3" y2="53.5" stroke="#1a1a1a" stroke-width="1.1"/>
<line x1="55.1" y1="51" x2="57.7" y2="51.6" stroke="#1a1a1a" stroke-width="1.1"/>
<line x1="50.7" y1="39.9" x2="54.9" y2="39.4" stroke="#1a1a1a" stroke-width="1.1"/><line x1="54.9" y1="39.4" x2="56.9" y2="41.9" stroke="#1a1a1a" stroke-width="0.9"/>
<line x1="42.5" y1="57.4" x2="44.5" y2="58.3" stroke="#1a1a1a" stroke-width="1.1"/>
<line x1="42.3" y1="38.4" x2="47.2" y2="37.4" stroke="#1a1a1a" stroke-width="1.1"/><line x1="47.2" y1="37.4" x2="49.2" y2="40.4" stroke="#1a1a1a" stroke-width="0.9"/>
<line x1="48.2" y1="50.8" x2="51.3" y2="51" stroke="#1a1a1a" stroke-width="1.1"/>
<line x1="40.9" y1="51.5" x2="43" y2="52.5" stroke="#1a1a1a" stroke-width="1.1"/><line x1="43" y1="52.5" x2="45" y2="53.5" stroke="#1a1a1a" stroke-width="0.9"/>
<line x1="46.8" y1="55.9" x2="51.5" y2="55.1" stroke="#1a1a1a" stroke-width="1.1"/>
<line x1="48.5" y1="35.8" x2="52.4" y2="35.5" stroke="#1a1a1a" stroke-width="1.1"/><line x1="52.4" y1="35.5" x2="54.4" y2="37.8" stroke="#1a1a1a" stroke-width="0.9"/>
<line x1="47" y1="48" x2="51.6" y2="47.3" stroke="#1a1a1a" stroke-width="1.1"/><line x1="51.6" y1="47.3" x2="53.6" y2="50" stroke="#1a1a1a" stroke-width="0.9"/>
<line x1="43.7" y1="53.9" x2="47.2" y2="53.9" stroke="#1a1a1a" stroke-width="1.1"/>
<line x1="49.2" y1="53.8" x2="52.8" y2="53.7" stroke="#1a1a1a" stroke-width="1.1"/><line x1="52.8" y1="53.7" x2="54.8" y2="55.8" stroke="#1a1a1a" stroke-width="0.9"/>
<line x1="40.7" y1="49.2" x2="45.5" y2="48.3" stroke="#1a1a1a" stroke-width="1.1"/>
<line x1="50.3" y1="36.5" x2="54.4" y2="36.2" stroke="#1a1a1a" stroke-width="1.1"/>
<line x1="46.7" y1="51.7" x2="50.3" y2="51.6" stroke="#1a1a1a" stroke-width="1.1"/>
<line x1="43" y1="57.6" x2="46.2" y2="57.7" stroke="#1a1a1a" stroke-width="1.1"/>
<line x1="52.2" y1="52.3" x2="57" y2="51.4" stroke="#1a1a1a" stroke-width="1.1"/>
<line x1="58.9" y1="52.6" x2="61.3" y2="53.4" stroke="#1a1a1a" stroke-width="1.1"/><line x1="61.3" y1="53.4" x2="63.3" y2="54.6" stroke="#1a1a1a" stroke-width="0.9"/>
<line x1="51.9" y1="55.6" x2="56.3" y2="55" stroke="#1a1a1a" stroke-width="1.1"/>
<line x1="44.5" y1="53.9" x2="47" y2="54.6" stroke="#1a1a1a" stroke-width="1.1"/><line x1="47" y1="54.6" x2="49" y2="55.9" stroke="#1a1a1a" stroke-width="0.9"/>
<line x1="50.4" y1="58.3" x2="53.9" y2="58.3" stroke="#1a1a1a" stroke-width="1.1"/><line x1="53.9" y1="58.3" x2="55.9" y2="60.3" stroke="#1a1a1a" stroke-width="0.9"/>
<line x1="42" y1="53.8" x2="45.7" y2="53.7" stroke="#1a1a1a" stroke-width="1.1"/>
<line x1="47.1" y1="47.8" x2="50.1" y2="48.1" stroke="#1a1a1a" stroke-width="1.1"/><line x1="50.1" y1="48.1" x2="52.1" y2="49.8" stroke="#1a1a1a" stroke-width="0.9"/>
<line x1="49.8" y1="49.6" x2="52.1" y2="50.4" stroke="#1a1a1a" stroke-width="1.1"/>
<line x1="39.5" y1="49.4" x2="44.4" y2="48.5" stroke="#1a1a1a" stroke-width="1.1"/>
<line x1="43.8" y1="43.4" x2="48.5" y2="42.7" stroke="#1a1a1a" stroke-width="1.1"/><line x1="48.5" y1="42.7" x2="50.5" y2="45.4" stroke="#1a1a1a" stroke-width="0.9"/>
<line x1="46.5" y1="45.8" x2="48.6" y2="46.7" stroke="#1a1a1a" stroke-width="1.1"/>
<line x1="52.6" y1="47.5" x2="55" y2="48.3" stroke="#1a1a1a" stroke-width="1.1"/>
<line x1="52.5" y1="48.5" x2="55.1" y2="49.1" stroke="#1a1a1a" stroke-width="1.1"/>
<line x1="57.1" y1="42.7" x2="59.2" y2="43.6" stroke="#1a1a1a" stroke-width="1.1"/>
<line x1="42.2" y1="48.9" x2="46.7" y2="48.2" stroke="#1a1a1a" stroke-width="1.1"/>
<line x1="41" y1="55.6" x2="43.3" y2="56.4" stroke="#1a1a1a" stroke-width="1.1"/>
<line x1="54.7" y1="40.7" x2="56.9" y2="41.5" stroke="#1a1a1a" stroke-width="1.1"/>
<line x1="44.7" y1="41.5" x2="49" y2="41" stroke="#1a1a1a" stroke-width="1.1"/><line x1="49" y1="41" x2="51" y2="43.5" stroke="#1a1a1a" stroke-width="0.9"/>
<line x1="49.4" y1="36.2" x2="52.7" y2="36.4" stroke="#1a1a1a" stroke-width="1.1"/><line x1="52.7" y1="36.4" x2="54.7" y2="38.2" stroke="#1a1a1a" stroke-width="0.9"/>
<line x1="42.7" y1="56.2" x2="45" y2="57" stroke="#1a1a1a" stroke-width="1.1"/><line x1="45" y1="57" x2="47" y2="58.2" stroke="#1a1a1a" stroke-width="0.9"/>
<line x1="55" y1="53.4" x2="57.7" y2="53.9" stroke="#1a1a1a" stroke-width="1.1"/>
<line x1="51.3" y1="45.7" x2="53.8" y2="46.4" stroke="#1a1a1a" stroke-width="1.1"/>
<line x1="50" y1="44.6" x2="52.6" y2="45.1" stroke="#1a1a1a" stroke-width="1.1"/>
<line x1="56.2" y1="44.7" x2="58.5" y2="45.6" stroke="#1a1a1a" stroke-width="1.1"/><line x1="58.5" y1="45.6" x2="60.5" y2="46.7" stroke="#1a1a1a" stroke-width="0.9"/>
<line x1="59.9" y1="55.1" x2="64.3" y2="54.6" stroke="#1a1a1a" stroke-width="1.1"/><line x1="64.3" y1="54.6" x2="66.3" y2="57.1" stroke="#1a1a1a" stroke-width="0.9"/>
<line x1="46.9" y1="41.5" x2="50.9" y2="41.2" stroke="#1a1a1a" stroke-width="1.1"/><line x1="50.9" y1="41.2" x2="52.9" y2="43.5" stroke="#1a1a1a" stroke-width="0.9"/>
<line x1="59.6" y1="51.9" x2="61.6" y2="52.9" stroke="#1a1a1a" stroke-width="1.1"/>
<line x1="44.8" y1="46.3" x2="47" y2="47.2" stroke="#1a1a1a" stroke-width="1.1"/>
<line x1="51.8" y1="50.9" x2="55.4" y2="50.8" stroke="#1a1a1a" stroke-width="1.1"/><line x1="55.4" y1="50.8" x2="57.4" y2="52.9" stroke="#1a1a1a" stroke-width="0.9"/>
<line x1="53.6" y1="57.9" x2="57.1" y2="57.9" stroke="#1a1a1a" stroke-width="1.1"/>
<line x1="52.1" y1="47.1" x2="55" y2="47.5" stroke="#1a1a1a" stroke-width="1.1"/>
<line x1="48.9" y1="52.9" x2="51.7" y2="53.4" stroke="#1a1a1a" stroke-width="1.1"/><line x1="51.7" y1="53.4" x2="53.7" y2="54.9" stroke="#1a1a1a" stroke-width="0.9"/>
<line x1="45.9" y1="56.3" x2="50.7" y2="55.4" stroke="#1a1a1a" stroke-width="1.1"/>
<line x1="42.2" y1="53.8" x2="44.5" y2="54.5" stroke="#1a1a1a" stroke-width="1.1"/>
<line x1="51" y1="46.2" x2="54.6" y2="46.2" stroke="#1a1a1a" stroke-width="1.1"/><line x1="54.6" y1="46.2" x2="56.6" y2="48.2" stroke="#1a1a1a" stroke-width="0.9"/>
<line x1="55.1" y1="50.8" x2="58.4" y2="50.9" stroke="#1a1a1a" stroke-width="1.1"/>
<line x1="40.3" y1="48.6" x2="44.9" y2="47.8" stroke="#1a1a1a" stroke-width="1.1"/><line x1="44.9" y1="47.8" x2="46.9" y2="50.6" stroke="#1a1a1a" stroke-width="0.9"/>
<line x1="51" y1="46.2" x2="55.9" y2="45.2" stroke="#1a1a1a" stroke-width="1.1"/><line x1="55.9" y1="45.2" x2="57.9" y2="48.2" stroke="#1a1a1a" stroke-width="0.9"/>
<line x1="47.7" y1="42.7" x2="50.1" y2="43.4" stroke="#1a1a1a" stroke-width="1.1"/>
<line x1="53.7" y1="42.3" x2="57.8" y2="41.9" stroke="#1a1a1a" stroke-width="1.1"/>
<line x1="52.2" y1="44.9" x2="55.7" y2="44.8" stroke="#1a1a1a" stroke-width="1.1"/>
<line x1="42.7" y1="43.1" x2="46.6" y2="42.9" stroke="#1a1a1a" stroke-width="1.1"/><line x1="46.6" y1="42.9" x2="48.6" y2="45.1" stroke="#1a1a1a" stroke-width="0.9"/>
<line x1="43.1" y1="57.7" x2="46.9" y2="57.5" stroke="#1a1a1a" stroke-width="1.1"/>
<line x1="41.2" y1="55.4" x2="43.8" y2="56" stroke="#1a1a1a" stroke-width="1.1"/>
<line x1="44.9" y1="56.2" x2="47.5" y2="56.8" stroke="#1a1a1a" stroke-width="1.1"/><line x1="47.5" y1="56.8" x2="49.5" y2="58.2" stroke="#1a1a1a" stroke-width="0.9"/>
<line x1="44.5" y1="58.8" x2="47.4" y2="59.2" stroke="#1a1a1a" stroke-width="1.1"/><line x1="47.4" y1="59.2" x2="49.4" y2="60.8" stroke="#1a1a1a" stroke-width="0.9"/>
<line x1="43.4" y1="42.7" x2="46.9" y2="42.6" stroke="#1a1a1a" stroke-width="1.1"/><line x1="46.9" y1="42.6" x2="48.9" y2="44.7" stroke="#1a1a1a" stroke-width="0.9"/>
<line x1="59.2" y1="50.4" x2="62.7" y2="50.4" stroke="#1a1a1a" stroke-width="1.1"/><line x1="62.7" y1="50.4" x2="64.7" y2="52.4" stroke="#1a1a1a" stroke-width="0.9"/>
<line x1="49.8" y1="44.3" x2="53.5" y2="44.1" stroke="#1a1a1a" stroke-width="1.1"/>
<line x1="58" y1="56.7" x2="60.2" y2="57.5" stroke="#1a1a1a" stroke-width="1.1"/>
<line x1="57.6" y1="40.2" x2="60.9" y2="40.3" stroke="#1a1a1a" stroke-width="1.1"/><line x1="60.9" y1="40.3" x2="62.9" y2="42.2" stroke="#1a1a1a" stroke-width="0.9"/>
<line x1="46.9" y1="57.2" x2="50.3" y2="57.2" stroke="#1a1a1a" stroke-width="1.1"/><line x1="50.3" y1="57.2" x2="52.3" y2="59.2" stroke="#1a1a1a" stroke-width="0.9"/>
<line x1="51.8" y1="51.7" x2="54.4" y2="52.2" stroke="#1a1a1a" stroke-width="1.1"/>
<line x1="45.8" y1="58.4" x2="50.7" y2="57.4" stroke="#1a1a1a" stroke-width="1.1"/>
<line x1="55.7" y1="44.1" x2="59.5" y2="43.9" stroke="#1a1a1a" stroke-width="1.1"/>
<line x1="59.1" y1="40.8" x2="63.3" y2="40.3" stroke="#1a1a1a" stroke-width="1.1"/>
<line x1="44.8" y1="41.1" x2="47" y2="41.9" stroke="#1a1a1a" stroke-width="1.1"/>
<line x1="56.8" y1="43.9" x2="60.4" y2="43.8" stroke="#1a1a1a" stroke-width="1.1"/>
<line x1="56.8" y1="44.2" x2="61.3" y2="43.6" stroke="#1a1a1a" stroke-width="1.1"/>
<line x1="55.5" y1="48.2" x2="58.9" y2="48.2" stroke="#1a1a1a" stroke-width="1.1"/><line x1="58.9" y1="48.2" x2="60.9" y2="50.2" stroke="#1a1a1a" stroke-width="0.9"/>
<line x1="51.1" y1="44.1" x2="54" y2="44.5" stroke="#1a1a1a" stroke-width="1.1"/>
<line x1="43.4" y1="57.4" x2="47.5" y2="57" stroke="#1a1a1a" stroke-width="1.1"/>
<line x1="59.3" y1="46.2" x2="62.2" y2="46.5" stroke="#1a1a1a" stroke-width="1.1"/>
<line x1="38.5" y1="47.2" x2="42" y2="47.3" stroke="#1a1a1a" stroke-width="1.1"/>
<line x1="54.3" y1="51.1" x2="59.3" y2="50.2" stroke="#1a1a1a" stroke-width="1.1"/><line x1="59.3" y1="50.2" x2="61.3" y2="53.1" stroke="#1a1a1a" stroke-width="0.9"/>
<line x1="45.5" y1="50.1" x2="49.9" y2="49.5" stroke="#1a1a1a" stroke-width="1.1"/>
<line x1="43.5" y1="43.3" x2="47.1" y2="43.3" stroke="#1a1a1a" stroke-width="1.1"/><line x1="47.1" y1="43.3" x2="49.1" y2="45.3" stroke="#1a1a1a" stroke-width="0.9"/>
<line x1="49.7" y1="49.7" x2="52.9" y2="49.9" stroke="#1a1a1a" stroke-width="1.1"/>
<line x1="47.4" y1="56.7" x2="49.6" y2="57.5" stroke="#1a1a1a" stroke-width="1.1"/>
<line x1="41.1" y1="51.7" x2="45.9" y2="50.8" stroke="#1a1a1a" stroke-width="1.1"/>
<line x1="49.6" y1="35.3" x2="51.8" y2="36.2" stroke="#1a1a1a" stroke-width="1.1"/><line x1="51.8" y1="36.2" x2="53.8" y2="37.3" stroke="#1a1a1a" stroke-width="0.9"/>
<line x1="48.8" y1="45.5" x2="51.3" y2="46.2" stroke="#1a1a1a" stroke-width="1.1"/><line x1="51.3" y1="46.2" x2="53.3" y2="47.5" stroke="#1a1a1a" stroke-width="0.9"/>
<line x1="47.4" y1="39.6" x2="52" y2="38.8" stroke="#1a1a1a" stroke-width="1.1"/>
<line x1="52.4" y1="48.8" x2="55.7" y2="49" stroke="#1a1a1a" stroke-width="1.1"/>
<line x1="48.7" y1="49" x2="51.4" y2="49.6" stroke="#1a1a1a" stroke-width="1.1"/><line x1="51.4" y1="49.6" x2="53.4" y2="51" stroke="#1a1a1a" stroke-width="0.9"/>
<line x1="48.7" y1="55.7" x2="52.5" y2="55.5" stroke="#1a1a1a" stroke-width="1.1"/>
<line x1="46.7" y1="45.9" x2="50.8" y2="45.5" stroke="#1a1a1a" stroke-width="1.1"/>
<line x1="55.4" y1="49.2" x2="60.3" y2="48.2" stroke="#1a1a1a" stroke-width="1.1"/>
<line x1="39.6" y1="51.8" x2="42.3" y2="52.3" stroke="#1a1a1a" stroke-width="1.1"/>
<line x1="53.2" y1="58.6" x2="57.6" y2="58" stroke="#1a1a1a" stroke-width="1.1"/>
<line x1="51.6" y1="60.1" x2="54.5" y2="60.5" stroke="#1a1a1a" stroke-width="1.1"/><line x1="54.5" y1="60.5" x2="56.5" y2="62.1" stroke="#1a1a1a" stroke-width="0.9"/>
<line x1="59.6" y1="51.6" x2="62.1" y2="52.3" stroke="#1a1a1a" stroke-width="1.1"/><line x1="62.1" y1="52.3" x2="64.1" y2="53.6" stroke="#1a1a1a" stroke-width="0.9"/>
<line x1="43.5" y1="41" x2="47.5" y2="40.8" stroke="#1a1a1a" stroke-width="1.1"/>
<line x1="50.2" y1="60.1" x2="54.2" y2="59.8" stroke="#1a1a1a" stroke-width="1.1"/><line x1="54.2" y1="59.8" x2="56.2" y2="62.1" stroke="#1a1a1a" stroke-width="0.9"/>
<line x1="53" y1="45.8" x2="55.5" y2="46.4" stroke="#1a1a1a" stroke-width="1.1"/><line x1="55.5" y1="46.4" x2="57.5" y2="47.8" stroke="#1a1a1a" stroke-width="0.9"/>
<line x1="40.6" y1="42.7" x2="44.1" y2="42.7" stroke="#1a1a1a" stroke-width="1.1"/>
<line x1="44.6" y1="37.9" x2="48.3" y2="37.7" stroke="#1a1a1a" stroke-width="1.1"/>
<line x1="49.2" y1="57" x2="53.1" y2="56.7" stroke="#1a1a1a" stroke-width="1.1"/><line x1="53.1" y1="56.7" x2="55.1" y2="59" stroke="#1a1a1a" stroke-width="0.9"/>
<line x1="55.7" y1="46.7" x2="58.1" y2="47.4" stroke="#1a1a1a" stroke-width="1.1"/>
<line x1="48.6" y1="43.3" x2="51.7" y2="43.5" stroke="#1a1a1a" stroke-width="1.1"/>
<line x1="56.9" y1="45.3" x2="59.7" y2="45.8" stroke="#1a1a1a" stroke-width="1.1"/>
<line x1="40.8" y1="45.1" x2="43.7" y2="45.6" stroke="#1a1a1a" stroke-width="1.1"/>
<line x1="57" y1="44.3" x2="60.3" y2="44.4" stroke="#1a1a1a" stroke-width="1.1"/>
<line x1="46.7" y1="39" x2="50.4" y2="38.8" stroke="#1a1a1a" stroke-width="1.1"/>
<line x1="53.2" y1="36.6" x2="58" y2="35.7" stroke="#1a1a1a" stroke-width="1.1"/><line x1="58" y1="35.7" x2="60" y2="38.6" stroke="#1a1a1a" stroke-width="0.9"/>
<line x1="61.4" y1="48" x2="65.7" y2="47.5" stroke="#1a1a1a" stroke-width="1.1"/><line x1="65.7" y1="47.5" x2="67.7" y2="50" stroke="#1a1a1a" stroke-width="0.9"/>
<line x1="39.9" y1="52.8" x2="44.4" y2="52.2" stroke="#1a1a1a" stroke-width="1.1"/><line x1="44.4" y1="52.2" x2="46.4" y2="54.8" stroke="#1a1a1a" stroke-width="0.9"/>
<line x1="57.5" y1="40.7" x2="61.3" y2="40.5" stroke="#1a1a1a" stroke-width="1.1"/>
<line x1="48.3" y1="39.3" x2="52.5" y2="38.8" stroke="#1a1a1a" stroke-width="1.1"/>
<line x1="45.4" y1="59.4" x2="49.3" y2="59.2" stroke="#1a1a1a" stroke-width="1.1"/>
<line x1="53" y1="59.8" x2="56.4" y2="59.9" stroke="#1a1a1a" stroke-width="1.1"/><line x1="56.4" y1="59.9" x2="58.4" y2="61.8" stroke="#1a1a1a" stroke-width="0.9"/>
<line x1="55.8" y1="47.3" x2="60" y2="46.9" stroke="#1a1a1a" stroke-width="1.1"/>
<line x1="51.7" y1="42.3" x2="56.6" y2="41.4" stroke="#1a1a1a" stroke-width="1.1"/><line x1="56.6" y1="41.4" x2="58.6" y2="44.3" stroke="#1a1a1a" stroke-width="0.9"/>
<line x1="40.4" y1="47.3" x2="43.1" y2="47.9" stroke="#1a1a1a" stroke-width="1.1"/>
<line x1="60.6" y1="44.2" x2="65.1" y2="43.6" stroke="#1a1a1a" stroke-width="1.1"/><line x1="65.1" y1="43.6" x2="67.1" y2="46.2" stroke="#1a1a1a" stroke-width="0.9"/>
<line x1="49.8" y1="58.7" x2="51.9" y2="59.6" stroke="#1a1a1a" stroke-width="1.1"/><line x1="51.9" y1="59.6" x2="53.9" y2="60.7" stroke="#1a1a1a" stroke-width="0.9"/>
<line x1="41.2" y1="51.2" x2="44.1" y2="51.5" stroke="#1a1a1a" stroke-width="1.1"/>
<line x1="49.9" y1="43.7" x2="52.5" y2="44.3" stroke="#1a1a1a" stroke-width="1.1"/><line x1="52.5" y1="44.3" x2="54.5" y2="45.7" stroke="#1a1a1a" stroke-width="0.9"/>
<line x1="47.6" y1="49.5" x2="52.3" y2="48.6" stroke="#1a1a1a" stroke-width="1.1"/>
<line x1="50.8" y1="49.3" x2="54.6" y2="49.1" stroke="#1a1a1a" stroke-width="1.1"/><line x1="54.6" y1="49.1" x2="56.6" y2="51.3" stroke="#1a1a1a" stroke-width="0.9"/>
<line x1="49.8" y1="41.9" x2="53.2" y2="41.9" stroke="#1a1a1a" stroke-width="1.1"/>
<line x1="52.3" y1="42.5" x2="54.6" y2="43.3" stroke="#1a1a1a" stroke-width="1.1"/>
<line x1="53.7" y1="48.7" x2="57.1" y2="48.7" stroke="#1a1a1a" stroke-width="1.1"/>
<line x1="52.5" y1="47.7" x2="55.8" y2="47.8" stroke="#1a1a1a" stroke-width="1.1"/>
<line x1="52.5" y1="42.7" x2="56.3" y2="42.6" stroke="#1a1a1a" stroke-width="1.1"/><line x1="56.3" y1="42.6" x2="58.3" y2="44.7" stroke="#1a1a1a" stroke-width="0.9"/>
<line x1="52.6" y1="60.3" x2="56.5" y2="60.1" stroke="#1a1a1a" stroke-width="1.1"/><line x1="56.5" y1="60.1" x2="58.5" y2="62.3" stroke="#1a1a1a" stroke-width="0.9"/>
<line x1="38.1" y1="46.7" x2="43" y2="45.8" stroke="#1a1a1a" stroke-width="1.1"/>
<line x1="44.4" y1="52.4" x2="46.9" y2="53" stroke="#1a1a1a" stroke-width="1.1"/><line x1="46.9" y1="53" x2="48.9" y2="54.4" stroke="#1a1a1a" stroke-width="0.9"/>
<line x1="59.6" y1="44.2" x2="63.6" y2="43.8" stroke="#1a1a1a" stroke-width="1.1"/><line x1="63.6" y1="43.8" x2="65.6" y2="46.2" stroke="#1a1a1a" stroke-width="0.9"/>
<line x1="40.2" y1="54.7" x2="45" y2="53.8" stroke="#1a1a1a" stroke-width="1.1"/><line x1="45" y1="53.8" x2="47" y2="56.7" stroke="#1a1a1a" stroke-width="0.9"/>
<line x1="46.4" y1="55.7" x2="49.3" y2="56.1" stroke="#1a1a1a" stroke-width="1.1"/>
<line x1="44.6" y1="55.7" x2="48.2" y2="55.6" stroke="#1a1a1a" stroke-width="1.1"/>
<line x1="53.3" y1="48.3" x2="56.9" y2="48.2" stroke="#1a1a1a" stroke-width="1.1"/><line x1="56.9" y1="48.2" x2="58.9" y2="50.3" stroke="#1a1a1a" stroke-width="0.9"/>
<line x1="51" y1="58.3" x2="53.6" y2="58.9" stroke="#1a1a1a" stroke-width="1.1"/>
<line x1="57.8" y1="40.2" x2="62.2" y2="39.6" stroke="#1a1a1a" stroke-width="1.1"/>
<line x1="47.6" y1="59.6" x2="50.1" y2="60.3" stroke="#1a1a1a" stroke-width="1.1"/><line x1="50.1" y1="60.3" x2="52.1" y2="61.6" stroke="#1a1a1a" stroke-width="0.9"/>
<line x1="58.2" y1="42.1" x2="60.5" y2="42.9" stroke="#1a1a1a" stroke-width="1.1"/><line x1="60.5" y1="42.9" x2="62.5" y2="44.1" stroke="#1a1a1a" stroke-width="0.9"/>
<line x1="48.8" y1="37.3" x2="53.4" y2="36.6" stroke="#1a1a1a" stroke-width="1.1"/>
<line x1="52.2" y1="48.8" x2="56.6" y2="48.2" stroke="#1a1a1a" stroke-width="1.1"/>
<line x1="39.2" y1="43.4" x2="43.9" y2="42.6" stroke="#1a1a1a" stroke-width="1.1"/>
<line x1="61.6" y1="45.8" x2="64.6" y2="46.2" stroke="#1a1a1a" stroke-width="1.1"/><line x1="64.6" y1="46.2" x2="66.6" y2="47.8" stroke="#1a1a1a" stroke-width="0.9"/>
</g>
</svg>
