<svg xmlns="http://www.w3.org/2000/svg" viewBox="0 0 300 300" width="300" height="300">
<!-- Огненный стихийник — кадр attack_2: fire_elemental -->
<g transform="scale(3)">
<defs>
<linearGradient id="fire_elemental_g1" x1="0" y1="0" x2="0.6" y2="1"><stop offset="0" stop-color="#e8542f"/><stop offset="1" stop-color="#e8542f"/></linearGradient>
</defs>
<ellipse cx="50" cy="94" rx="30" ry="4" fill="rgba(0,0,0,0.28)"/>
<ellipse cx="50" cy="90" rx="26" ry="7" fill="#5d5766" opacity="0.85"/>
<ellipse cx="40" cy="88" rx="8" ry="4" fill="#5d5766" opacity="0.6"/>
<ellipse cx="60" cy="89" rx="9" ry="4" fill="#5d5766" opacity="0.6"/>
<circle cx="34" cy="88" r="1.6" fill="#ffd23c"/>
<circle cx="42" cy="91" r="1.6" fill="#ffd23c"/>
<circle cx="50" cy="88" r="1.6" fill="#ffd23c"/>
<circle cx="58" cy="91" r="1.6" fill="#ffd23c"/>
<circle cx="66" cy="88" r="1.6" fill="#ffd23c"/>
<path d="M50 90.8 C30 84 26 62 34 46 C38 38 36 30 42 23.6 C46 34 50 38 52 26.6 C56 38 54 20 62 16 C60 26 66 34 64 44 C74 52 78 72 68 84 C62 90 56 90.8 50 90.8 Z" fill="url(#fire_elemental_g1)" stroke="#5d5766" stroke-width="2" stroke-linejoin="round"/>
<path d="M50 86 C38 80 36 64 42 52 C46 44 50 46 52 40 C56 48 60 52 60 62 C64 70 60 80 54 84 Z" fill="#f5872f"/>
<ellipse cx="50" cy="62" rx="9" ry="11" fill="#ffd23c" stroke="#5d5766" stroke-width="1.5"/>
<path d="M45 56 q4 6 0 12" fill="none" stroke="#fff3c4" stroke-width="1.4" stroke-linecap="round"/>
<path d="M54 54 q3 7 1 14" fill="none" stroke="#fff3c4" stroke-width="1.4" stroke-linecap="round"/>
<circle cx="46" cy="58" r="1.8" fill="#fff3c4"/>
<circle cx="53" cy="58" r="1.8" fill="#fff3c4"/>
<path d="M36 30 q4 -10.3 0 -17.1 q-4 10.3 0 17.1 Z" fill="#f5872f"/>
<path d="M43 26 q4 -9.7 0 -16.1 q-4 9.7 0 16.1 Z" fill="#fff3c4"/>
<path d="M50 30 q4 0.9 0 1.5 q-4 -0.9 0 -1.5 Z" fill="#f5872f"/>
<path d="M57 26 q4 -4.5 0 -7.5 q-4 4.5 0 7.5 Z" fill="#fff3c4"/>
<path d="M64 30 q4 -9.6 0 -16 q-4 9.6 0 16 Z" fill="#f5872f"/>
<path d="M71 26 q4 -6 0 -10 q-4 6 0 10 Z" fill="#fff3c4"/>
<circle cx="30" cy="24" r="1.1" fill="#ffd23c"/>
<circle cx="43" cy="30" r="1.1" fill="#ffd23c"/>
<circle cx="56" cy="24" r="1.1" fill="#ffd23c"/>
<circle cx="69" cy="30" r="1.1" fill="#ffd23c"/>
<circle cx="50.6" cy="38.5" r="1.1" fill="#ffd23c"/>
<circle cx="48.2" cy="75" r="0.9" fill="#ffd23c"/>
<circle cx="32.3" cy="65.6" r="1.4" fill="#ffd23c"/><circle cx="33.8" cy="64.1" r="0.5" fill="#fff3c4"/>
<circle cx="40.7" cy="69.7" r="1.1" fill="#ffd23c"/>
<circle cx="64" cy="56.2" r="1.2" fill="#ffd23c"/><circle cx="65.5" cy="54.7" r="0.5" fill="#fff3c4"/>
<circle cx="65.1" cy="44.3" r="1" fill="#ffd23c"/>
<circle cx="59.1" cy="70.2" r="0.8" fill="#ffd23c"/>
<circle cx="56.4" cy="42.6" r="1.2" fill="#ffd23c"/><circle cx="57.9" cy="41.1" r="0.5" fill="#fff3c4"/>
<circle cx="60.7" cy="46.8" r="1" fill="#ffd23c"/><circle cx="62.2" cy="45.3" r="0.5" fill="#fff3c4"/>
<circle cx="54.7" cy="65.9" r="1.3" fill="#ffd23c"/><circle cx="56.2" cy="64.4" r="0.5" fill="#fff3c4"/>
<circle cx="31.3" cy="62.6" r="1.1" fill="#ffd23c"/>
<circle cx="35" cy="41.9" r="1.5" fill="#ffd23c"/>
<circle cx="42.4" cy="53.4" r="1.5" fill="#ffd23c"/>
<circle cx="50.8" cy="43" r="1.1" fill="#ffd23c"/>
<circle cx="62.6" cy="41.9" r="0.7" fill="#ffd23c"/>
<circle cx="62.5" cy="39.9" r="1" fill="#ffd23c"/><circle cx="64" cy="38.4" r="0.5" fill="#fff3c4"/>
<circle cx="67.6" cy="45.2" r="1.3" fill="#ffd23c"/><circle cx="69.1" cy="43.7" r="0.5" fill="#fff3c4"/>
<circle cx="66.5" cy="60.6" r="1.4" fill="#ffd23c"/><circle cx="68" cy="59.1" r="0.5" fill="#fff3c4"/>
<circle cx="51.9" cy="52.2" r="1.6" fill="#ffd23c"/><circle cx="53.4" cy="50.7" r="0.5" fill="#fff3c4"/>
<circle cx="50.6" cy="71.4" r="1.2" fill="#ffd23c"/>
<circle cx="54.1" cy="74.3" r="1" fill="#ffd23c"/><circle cx="55.6" cy="72.8" r="0.5" fill="#fff3c4"/>
<circle cx="59.6" cy="35.8" r="1.2" fill="#ffd23c"/><circle cx="61.1" cy="34.3" r="0.5" fill="#fff3c4"/>
<circle cx="51.6" cy="66.2" r="0.8" fill="#ffd23c"/><circle cx="53.1" cy="64.7" r="0.5" fill="#fff3c4"/>
<circle cx="69.5" cy="54.5" r="0.8" fill="#ffd23c"/><circle cx="71" cy="53" r="0.5" fill="#fff3c4"/>
<circle cx="67.4" cy="51.6" r="1.3" fill="#ffd23c"/><circle cx="68.9" cy="50.1" r="0.5" fill="#fff3c4"/>
<circle cx="48.6" cy="72.5" r="1.6" fill="#ffd23c"/><circle cx="50.1" cy="71" r="0.5" fill="#fff3c4"/>
<circle cx="47.5" cy="34.8" r="0.7" fill="#ffd23c"/><circle cx="49" cy="33.3" r="0.5" fill="#fff3c4"/>
<circle cx="60.3" cy="63.5" r="1.5" fill="#ffd23c"/>
<circle cx="48.5" cy="70.7" r="1.4" fill="#ffd23c"/>
<circle cx="68.6" cy="45.3" r="0.8" fill="#ffd23c"/><circle cx="70.1" cy="43.8" r="0.5" fill="#fff3c4"/>
<circle cx="58.7" cy="62.5" r="0.9" fill="#ffd23c"/>
<circle cx="57" cy="54.1" r="1.6" fill="#ffd23c"/>
<circle cx="55" cy="67.9" r="1.4" fill="#ffd23c"/><circle cx="56.5" cy="66.4" r="0.5" fill="#fff3c4"/>
<circle cx="58.5" cy="63.8" r="0.7" fill="#ffd23c"/><circle cx="60" cy="62.3" r="0.5" fill="#fff3c4"/>
<circle cx="68.9" cy="62.2" r="1" fill="#ffd23c"/>
<circle cx="50.4" cy="77.8" r="1.2" fill="#ffd23c"/>
<circle cx="32.6" cy="49" r="1.5" fill="#ffd23c"/>
<circle cx="51" cy="47.3" r="0.8" fill="#ffd23c"/>
<circle cx="54.9" cy="38.8" r="0.8" fill="#ffd23c"/>
<circle cx="71" cy="53.3" r="0.7" fill="#ffd23c"/>
<circle cx="69.3" cy="51.7" r="1" fill="#ffd23c"/><circle cx="70.8" cy="50.2" r="0.5" fill="#fff3c4"/>
<circle cx="41" cy="67.2" r="1.5" fill="#ffd23c"/>
<circle cx="71.6" cy="51.6" r="1.1" fill="#ffd23c"/><circle cx="73.1" cy="50.1" r="0.5" fill="#fff3c4"/>
<circle cx="32.2" cy="63.7" r="0.9" fill="#ffd23c"/>
<circle cx="55.5" cy="65" r="1.2" fill="#ffd23c"/>
<circle cx="50.2" cy="55.8" r="1.6" fill="#ffd23c"/><circle cx="51.7" cy="54.3" r="0.5" fill="#fff3c4"/>
<circle cx="36.9" cy="75.1" r="1.5" fill="#ffd23c"/>
<circle cx="30.9" cy="67.2" r="1.1" fill="#ffd23c"/>
<circle cx="42.8" cy="38" r="1" fill="#ffd23c"/>
<circle cx="58.1" cy="72.8" r="1.2" fill="#ffd23c"/>
<circle cx="38" cy="36" r="0.9" fill="#ffd23c"/>
<circle cx="47.7" cy="52.3" r="1.4" fill="#ffd23c"/>
<circle cx="60.3" cy="53.9" r="1.2" fill="#ffd23c"/><circle cx="61.8" cy="52.4" r="0.5" fill="#fff3c4"/>
<circle cx="63.1" cy="45.7" r="0.7" fill="#ffd23c"/>
<circle cx="31.9" cy="66.7" r="1.1" fill="#ffd23c"/>
<circle cx="64" cy="52.5" r="1.1" fill="#ffd23c"/><circle cx="65.5" cy="51" r="0.5" fill="#fff3c4"/>
<circle cx="28.9" cy="55.3" r="1.3" fill="#ffd23c"/>
<circle cx="56.9" cy="61.3" r="1" fill="#ffd23c"/>
<circle cx="45.5" cy="62.5" r="1.4" fill="#ffd23c"/>
<circle cx="46.7" cy="43.6" r="0.7" fill="#ffd23c"/>
<circle cx="45.7" cy="77.6" r="1.1" fill="#ffd23c"/><circle cx="47.2" cy="76.1" r="0.5" fill="#fff3c4"/>
<circle cx="66.9" cy="60.8" r="1.2" fill="#ffd23c"/>
<circle cx="59" cy="46" r="1.6" fill="#ffd23c"/><circle cx="60.5" cy="44.5" r="0.5" fill="#fff3c4"/>
<circle cx="63.5" cy="37.8" r="0.8" fill="#ffd23c"/><circle cx="65" cy="36.3" r="0.5" fill="#fff3c4"/>
<circle cx="52.2" cy="42.7" r="0.9" fill="#ffd23c"/>
<circle cx="67.8" cy="60.6" r="1.2" fill="#ffd23c"/>
<circle cx="43.2" cy="68.1" r="1.3" fill="#ffd23c"/>
<circle cx="43.4" cy="37.3" r="0.9" fill="#ffd23c"/>
<circle cx="54.4" cy="33" r="1.6" fill="#ffd23c"/>
<circle cx="61.5" cy="40.7" r="0.8" fill="#ffd23c"/><circle cx="63" cy="39.2" r="0.5" fill="#fff3c4"/>
<circle cx="30.7" cy="58.5" r="0.8" fill="#ffd23c"/><circle cx="32.2" cy="57" r="0.5" fill="#fff3c4"/>
<circle cx="71.7" cy="54.8" r="1" fill="#ffd23c"/>
<circle cx="66.2" cy="42" r="1.2" fill="#ffd23c"/>
<circle cx="43.1" cy="47.9" r="0.9" fill="#ffd23c"/>
<circle cx="61.6" cy="40.3" r="0.7" fill="#ffd23c"/><circle cx="63.1" cy="38.8" r="0.5" fill="#fff3c4"/>
<circle cx="67.1" cy="47.1" r="1" fill="#ffd23c"/>
<circle cx="33.6" cy="60" r="1.1" fill="#ffd23c"/><circle cx="35.1" cy="58.5" r="0.5" fill="#fff3c4"/>
<circle cx="50" cy="66.5" r="1.1" fill="#ffd23c"/><circle cx="51.5" cy="65" r="0.5" fill="#fff3c4"/>
<circle cx="58.8" cy="42.5" r="0.9" fill="#ffd23c"/><circle cx="60.3" cy="41" r="0.5" fill="#fff3c4"/>
<circle cx="61.2" cy="59.7" r="0.8" fill="#ffd23c"/>
<circle cx="39.5" cy="70.3" r="0.8" fill="#ffd23c"/>
<circle cx="39.8" cy="64.9" r="0.8" fill="#ffd23c"/>
<circle cx="51.5" cy="43.8" r="1.6" fill="#ffd23c"/>
<circle cx="40.6" cy="54" r="0.9" fill="#ffd23c"/><circle cx="42.1" cy="52.5" r="0.5" fill="#fff3c4"/>
<circle cx="62.8" cy="53.3" r="0.7" fill="#ffd23c"/><circle cx="64.3" cy="51.8" r="0.5" fill="#fff3c4"/>
<circle cx="46" cy="60.7" r="1.1" fill="#ffd23c"/>
<circle cx="68.2" cy="49" r="0.7" fill="#ffd23c"/>
<circle cx="34.2" cy="53.6" r="1.6" fill="#ffd23c"/>
<circle cx="61.3" cy="49.8" r="1.6" fill="#ffd23c"/><circle cx="62.8" cy="48.3" r="0.5" fill="#fff3c4"/>
<circle cx="56.3" cy="46.9" r="1.2" fill="#ffd23c"/><circle cx="57.8" cy="45.4" r="0.5" fill="#fff3c4"/>
<circle cx="48" cy="64.3" r="1" fill="#ffd23c"/>
<circle cx="63" cy="65.8" r="0.9" fill="#ffd23c"/>
<circle cx="33.9" cy="43.1" r="1.1" fill="#ffd23c"/>
<circle cx="60" cy="66.5" r="1.3" fill="#ffd23c"/><circle cx="61.5" cy="65" r="0.5" fill="#fff3c4"/>
<circle cx="38.1" cy="57.1" r="0.8" fill="#ffd23c"/>
<circle cx="55.2" cy="59.6" r="1.3" fill="#ffd23c"/>
<circle cx="38.4" cy="70.9" r="1.5" fill="#ffd23c"/>
<circle cx="45.4" cy="47.9" r="1.5" fill="#ffd23c"/>
<circle cx="45" cy="75.6" r="1.6" fill="#ffd23c"/>
<circle cx="65.9" cy="43.2" r="1.1" fill="#ffd23c"/>
<circle cx="64.7" cy="60.4" r="1" fill="#ffd23c"/><circle cx="66.2" cy="58.9" r="0.5" fill="#fff3c4"/>
<circle cx="62.6" cy="72" r="1.3" fill="#ffd23c"/><circle cx="64.1" cy="70.5" r="0.5" fill="#fff3c4"/>
<circle cx="60.1" cy="37.8" r="1" fill="#ffd23c"/><circle cx="61.6" cy="36.3" r="0.5" fill="#fff3c4"/>
<circle cx="42.3" cy="63.1" r="1.1" fill="#ffd23c"/><circle cx="43.8" cy="61.6" r="0.5" fill="#fff3c4"/>
<circle cx="37.1" cy="56.1" r="1" fill="#ffd23c"/>
<circle cx="64.4" cy="73.2" r="0.8" fill="#ffd23c"/>
<circle cx="68.9" cy="64.8" r="1.1" fill="#ffd23c"/><circle cx="70.4" cy="63.3" r="0.5" fill="#fff3c4"/>
<circle cx="39.1" cy="56.1" r="1.5" fill="#ffd23c"/>
<circle cx="52.9" cy="70.1" r="0.9" fill="#ffd23c"/>
<circle cx="68.5" cy="65.1" r="0.8" fill="#ffd23c"/><circle cx="70" cy="63.6" r="0.5" fill="#fff3c4"/>
<circle cx="52.5" cy="54.2" r="0.9" fill="#ffd23c"/><circle cx="54" cy="52.7" r="0.5" fill="#fff3c4"/>
<circle cx="59.4" cy="61.8" r="1.2" fill="#ffd23c"/><circle cx="60.9" cy="60.3" r="0.5" fill="#fff3c4"/>
<circle cx="33.6" cy="40.8" r="1.1" fill="#ffd23c"/>
<circle cx="36.3" cy="62.7" r="1.6" fill="#ffd23c"/>
<circle cx="67.7" cy="44.5" r="1.4" fill="#ffd23c"/>
<circle cx="41.5" cy="56.2" r="0.8" fill="#ffd23c"/><circle cx="43" cy="54.7" r="0.5" fill="#fff3c4"/>
<circle cx="41.4" cy="66.9" r="1.1" fill="#ffd23c"/>
<circle cx="32.1" cy="53.5" r="1.4" fill="#ffd23c"/>
<circle cx="37.4" cy="41.3" r="1.1" fill="#ffd23c"/>
<circle cx="58.7" cy="64.6" r="0.9" fill="#ffd23c"/>
<circle cx="31.9" cy="55.1" r="0.9" fill="#ffd23c"/><circle cx="33.4" cy="53.6" r="0.5" fill="#fff3c4"/>
<circle cx="56.6" cy="60.6" r="1.5" fill="#ffd23c"/>
<circle cx="36" cy="46.4" r="1.6" fill="#ffd23c"/>
<circle cx="43.4" cy="56.4" r="1.5" fill="#ffd23c"/>
<circle cx="64.9" cy="40.9" r="1.4" fill="#ffd23c"/>
<circle cx="60" cy="47" r="1" fill="#ffd23c"/><circle cx="61.5" cy="45.5" r="0.5" fill="#fff3c4"/>
<circle cx="44.2" cy="56.1" r="0.7" fill="#ffd23c"/>
<circle cx="43.9" cy="62.8" r="0.8" fill="#ffd23c"/>
<circle cx="31.8" cy="54.8" r="0.8" fill="#ffd23c"/>
<circle cx="53.5" cy="36.9" r="1.2" fill="#ffd23c"/><circle cx="55" cy="35.4" r="0.5" fill="#fff3c4"/>
<circle cx="67" cy="57.9" r="1.4" fill="#ffd23c"/><circle cx="68.5" cy="56.4" r="0.5" fill="#fff3c4"/>
<circle cx="31.5" cy="58.1" r="0.8" fill="#ffd23c"/><circle cx="33" cy="56.6" r="0.5" fill="#fff3c4"/>
<circle cx="54.5" cy="77" r="1.2" fill="#ffd23c"/>
<circle cx="58" cy="39.2" r="0.8" fill="#ffd23c"/>
<circle cx="62.8" cy="69.6" r="1.4" fill="#ffd23c"/>
<circle cx="53.7" cy="65" r="0.9" fill="#ffd23c"/>
<circle cx="31.5" cy="53.7" r="1" fill="#ffd23c"/><circle cx="33" cy="52.2" r="0.5" fill="#fff3c4"/>
<circle cx="29.1" cy="56.8" r="1.5" fill="#ffd23c"/><circle cx="30.6" cy="55.3" r="0.5" fill="#fff3c4"/>
<circle cx="68.3" cy="62.2" r="1.4" fill="#ffd23c"/><circle cx="69.8" cy="60.7" r="0.5" fill="#fff3c4"/>
<circle cx="40.9" cy="70.4" r="1.4" fill="#ffd23c"/><circle cx="42.4" cy="68.9" r="0.5" fill="#fff3c4"/>
<circle cx="30.2" cy="46.9" r="1.3" fill="#ffd23c"/><circle cx="31.7" cy="45.4" r="0.5" fill="#fff3c4"/>
<circle cx="42" cy="62.6" r="1.1" fill="#ffd23c"/>
<circle cx="29.7" cy="64.9" r="1.1" fill="#ffd23c"/><circle cx="31.2" cy="63.4" r="0.5" fill="#fff3c4"/>
<circle cx="33.8" cy="56.2" r="0.9" fill="#ffd23c"/>
<circle cx="47.9" cy="65.3" r="0.7" fill="#ffd23c"/>
<circle cx="28.6" cy="59.1" r="0.7" fill="#ffd23c"/>
<circle cx="44" cy="65.5" r="1.5" fill="#ffd23c"/><circle cx="45.5" cy="64" r="0.5" fill="#fff3c4"/>
<circle cx="60.6" cy="70.4" r="1.1" fill="#ffd23c"/><circle cx="62.1" cy="68.9" r="0.5" fill="#fff3c4"/>
<circle cx="52.6" cy="48.2" r="1.1" fill="#ffd23c"/>
<circle cx="47.3" cy="38.7" r="0.8" fill="#ffd23c"/><circle cx="48.8" cy="37.2" r="0.5" fill="#fff3c4"/>
<circle cx="51.4" cy="61.5" r="1.4" fill="#ffd23c"/><circle cx="52.9" cy="60" r="0.5" fill="#fff3c4"/>
<circle cx="46.3" cy="33.9" r="1.4" fill="#ffd23c"/>
<circle cx="45.2" cy="66.8" r="1.2" fill="#ffd23c"/><circle cx="46.7" cy="65.3" r="0.5" fill="#fff3c4"/>
<circle cx="33.5" cy="47.6" r="1.5" fill="#ffd23c"/>
<circle cx="43.9" cy="45.8" r="1.1" fill="#ffd23c"/>
<circle cx="56.7" cy="68.4" r="1.4" fill="#ffd23c"/><circle cx="58.2" cy="66.9" r="0.5" fill="#fff3c4"/>
<circle cx="51.8" cy="52.1" r="1.1" fill="#ffd23c"/>
<circle cx="45.6" cy="61.5" r="1.5" fill="#ffd23c"/><circle cx="47.1" cy="60" r="0.5" fill="#fff3c4"/>
<circle cx="39.7" cy="72.1" r="1.2" fill="#ffd23c"/><circle cx="41.2" cy="70.6" r="0.5" fill="#fff3c4"/>
<circle cx="32.7" cy="54.2" r="1" fill="#ffd23c"/>
<circle cx="38.8" cy="56" r="1.2" fill="#ffd23c"/>
<circle cx="56.4" cy="53.3" r="1.3" fill="#ffd23c"/><circle cx="57.9" cy="51.8" r="0.5" fill="#fff3c4"/>
<circle cx="52.7" cy="71.6" r="1.5" fill="#ffd23c"/>
<circle cx="29.2" cy="58.4" r="0.8" fill="#ffd23c"/>
<circle cx="67" cy="41.9" r="0.7" fill="#ffd23c"/><circle cx="68.5" cy="40.4" r="0.5" fill="#fff3c4"/>
<circle cx="32.8" cy="48.9" r="1.1" fill="#ffd23c"/>
<circle cx="52.2" cy="63.9" r="1" fill="#ffd23c"/>
<circle cx="60.4" cy="47.4" r="1.3" fill="#ffd23c"/><circle cx="61.9" cy="45.9" r="0.5" fill="#fff3c4"/>
<circle cx="71" cy="61.4" r="0.7" fill="#ffd23c"/>
<circle cx="55.8" cy="37.1" r="0.8" fill="#ffd23c"/><circle cx="57.3" cy="35.6" r="0.5" fill="#fff3c4"/>
<circle cx="50.6" cy="54.5" r="1.4" fill="#ffd23c"/><circle cx="52.1" cy="53" r="0.5" fill="#fff3c4"/>
<circle cx="49.9" cy="41.7" r="1.1" fill="#ffd23c"/>
<circle cx="54.8" cy="66.3" r="1" fill="#ffd23c"/>
<circle cx="37.8" cy="45.8" r="1.2" fill="#ffd23c"/>
<circle cx="68.4" cy="64.3" r="1" fill="#ffd23c"/><circle cx="69.9" cy="62.8" r="0.5" fill="#fff3c4"/>
<circle cx="63.8" cy="53.3" r="1.3" fill="#ffd23c"/><circle cx="65.3" cy="51.8" r="0.5" fill="#fff3c4"/>
<circle cx="39" cy="64.8" r="1.2" fill="#ffd23c"/>
</g>
</svg>
