<svg xmlns="http://www.w3.org/2000/svg" viewBox="0 0 100 100" width="100" height="100">
<!-- Вампир — кадр attack_2: vampire -->
<g transform="scale(1)">
<defs>
<linearGradient id="vampire_g1" x1="0" y1="0" x2="0.6" y2="1"><stop offset="0" stop-color="#f4efe1"/><stop offset="1" stop-color="#f4efe1"/></linearGradient>
</defs>
<ellipse cx="50" cy="94" rx="26" ry="4" fill="rgba(0,0,0,0.28)"/>
<g transform="translate(0 0.9) rotate(6.4 50 90)">
<path d="M34 38 C30 64 32 88 36 92 L64 92 C68 88 70 64 66 38 C58 32 42 32 34 38 Z" fill="#0d0815" stroke="#1a1a1a" stroke-width="1.5" stroke-linejoin="round"/>
<line x1="39" y1="46" x2="42" y2="88" stroke="#1a1a1a" stroke-width="1.2" opacity="0.5"/>
<line x1="61" y1="46" x2="58" y2="88" stroke="#1a1a1a" stroke-width="1.2" opacity="0.5"/>
<path d="M44 60 Q42 77 36 92" fill="none" stroke="#d8d4c8" stroke-width="9" stroke-linecap="round"/>
<ellipse cx="36" cy="93" rx="6" ry="3.2" fill="#d8d4c8" stroke="#1a1a1a" stroke-width="1.5"/>
<path d="M56 60 Q58 72 62 86" fill="none" stroke="#f4efe1" stroke-width="9" stroke-linecap="round"/>
<ellipse cx="62" cy="87" rx="6" ry="3.2" fill="#f4efe1" stroke="#1a1a1a" stroke-width="1.5"/>
<path d="M36 38 C33 50 36 58 40 62 C44 65 56 65 60 62 C64 58 67 50 64 38 C58 31 42 31 36 38 Z" fill="url(#vampire_g1)" stroke="#1a1a1a" stroke-width="2" stroke-linejoin="round"/>
<path d="M36 38 C33 50 36 58 40 62 C40 50 38 46 40 41 Z" fill="#f4efe1"/>
<path d="M64 38 C67 50 64 58 60 62 C62 50 64 46 62 41 Z" fill="#d8d4c8"/>
<rect x="39" y="57" width="22" height="4.5" fill="#e8b23c" rx="1.5"/>
<circle cx="50" cy="59.2" r="1.8" fill="#0d0815"/>
<path d="M36 42 Q28.1 51.8 25 55.6" fill="none" stroke="#f4efe1" stroke-width="7.5" stroke-linecap="round"/>
<circle cx="25" cy="55.6" r="4.2" fill="#f4efe1" stroke="#1a1a1a" stroke-width="1.5"/>
<path d="M64 42 Q80.1 50.4 88.2 52.7" fill="none" stroke="#f4efe1" stroke-width="7.5" stroke-linecap="round"/>
<circle cx="88.2" cy="52.7" r="4.2" fill="#f4efe1" stroke="#1a1a1a" stroke-width="1.5"/>
<ellipse cx="50" cy="25.2" rx="12.5" ry="11.8" fill="url(#vampire_g1)" stroke="#1a1a1a" stroke-width="2"/>
<ellipse cx="55.6" cy="26.5" rx="6.3" ry="5.3" fill="#d8d4c8" opacity="0.45"/>
<path d="M37.5 25.2 C31.5 33.2 34.5 43.2 39.5 45.2 C45 39.2 46.3 31.2 43.8 17.7 Z" fill="#0d0815"/>
<path d="M62.5 25.2 C68.5 33.2 65.5 43.2 60.5 45.2 C55 39.2 53.8 31.2 56.3 17.7 Z" fill="#0d0815"/>
<line x1="43.1" y1="21.7" x2="48.5" y2="23.7" stroke="#1a1a1a" stroke-width="2.4"/>
<line x1="56.9" y1="21.7" x2="51.5" y2="23.7" stroke="#1a1a1a" stroke-width="2.4"/>
<circle cx="45.8" cy="25" r="4.8" fill="#e04a3a" opacity="0.3"/>
<circle cx="54.3" cy="25" r="4.8" fill="#e04a3a" opacity="0.3"/>
<ellipse cx="45.8" cy="25" rx="1.8" ry="1.4" fill="#e04a3a"/>
<ellipse cx="54.3" cy="25" rx="1.8" ry="1.4" fill="#e04a3a"/>
<polygon points="47.5,28.3 52.5,28.3 50,31.5" fill="#d8d4c8"/>
<ellipse cx="50" cy="33.5" rx="7.5" ry="5.8" fill="#1a1a1a"/>
<polygon points="46.9,32.7 48.1,37.1 49.4,33" fill="#f4efe1"/>
<polygon points="50.6,33 51.9,37.1 53.1,32.7" fill="#f4efe1"/>
</g>
<ellipse cx="43.9" cy="37.8" rx="2.3" ry="0.9" fill="#d8d4c8" opacity="0.55"/>
<path d="M59.8 57.2 q2 1.1 4 0" fill="none" stroke="#1a1a1a" stroke-width="1.2" stroke-linecap="round"/>
<ellipse cx="54.2" cy="53.9" rx="2.4" ry="0.9" fill="#d8d4c8" opacity="0.55"/>
<path d="M43.2 38.3 q2 1.5 4 0" fill="none" stroke="#1a1a1a" stroke-width="1.2" stroke-linecap="round"/>
<path d="M41.9 55 q2 1.1 4 0" fill="none" stroke="#1a1a1a" stroke-width="1.2" stroke-linecap="round"/>
</g>
</svg>
