<svg xmlns="http://www.w3.org/2000/svg" viewBox="0 0 100 100" width="100" height="100">
<!-- Волк — кадр attack_2: wolf -->
<g transform="scale(1)">
<ellipse cx="50" cy="94" rx="32" ry="4" fill="rgba(0,0,0,0.28)"/>
<path d="M22 56 C24 42 42 36 58 39 C72 41 80 47 84 55 C86 62 80 70 70 72 L30 72 C22 70 20 63 22 56 Z" fill="#8a8f98" stroke="#1a1a1a" stroke-width="2" stroke-linejoin="round"/>
<path d="M26 52 C32 42 48 38 62 41 C50 44 36 48 28 56 Z" fill="#9aa0a9" opacity="0.55"/>
<path d="M34 72 L68 72 C78 70 84 63 83 58 C78 66 66 70 36 70 Z" fill="#6a6f78" opacity="0.6"/>
<line x1="30" y1="70" x2="27" y2="83" stroke="#6a6f78" stroke-width="6.5"/>
<line x1="27" y1="83" x2="24" y2="92" stroke="#6a6f78" stroke-width="5"/>
<ellipse cx="24" cy="92.5" rx="4" ry="2.4" fill="#6a6f78" stroke="#1a1a1a" stroke-width="1.2"/>
<line x1="44" y1="72" x2="42" y2="84.5" stroke="#8a8f98" stroke-width="6.5"/>
<line x1="42" y1="84.5" x2="40" y2="93" stroke="#8a8f98" stroke-width="5"/>
<ellipse cx="40" cy="93.5" rx="4" ry="2.4" fill="#8a8f98" stroke="#1a1a1a" stroke-width="1.2"/>
<line x1="64" y1="72" x2="66" y2="84.5" stroke="#6a6f78" stroke-width="6.5"/>
<line x1="66" y1="84.5" x2="68" y2="93" stroke="#6a6f78" stroke-width="5"/>
<ellipse cx="68" cy="93.5" rx="4" ry="2.4" fill="#6a6f78" stroke="#1a1a1a" stroke-width="1.2"/>
<line x1="76" y1="70" x2="79" y2="83" stroke="#8a8f98" stroke-width="6.5"/>
<line x1="79" y1="83" x2="82" y2="92" stroke="#8a8f98" stroke-width="5"/>
<ellipse cx="82" cy="92.5" rx="4" ry="2.4" fill="#8a8f98" stroke="#1a1a1a" stroke-width="1.2"/>
<path d="M24 54 Q14 48 8 40" fill="none" stroke="#6a6f78" stroke-width="4" stroke-linecap="round"/>
<ellipse cx="8" cy="40" rx="3.4" ry="3.4" fill="#8a8f98"/>
<ellipse cx="84" cy="50" rx="9" ry="8.4" fill="#8a8f98" stroke="#1a1a1a" stroke-width="1.8"/>
<path d="M88 48 L98 52 L92 57 Z" fill="#6a6f78" stroke="#1a1a1a" stroke-width="1.4" stroke-linejoin="round"/>
<circle cx="97" cy="52.5" r="1.5" fill="#1a1a1a"/>
<polygon points="80,43 77,33 84,41" fill="#6a6f78" stroke="#1a1a1a" stroke-width="1.2" stroke-linejoin="round"/>
<polygon points="88,43 90,34 92,44" fill="#6a6f78" stroke="#1a1a1a" stroke-width="1.2" stroke-linejoin="round"/>
<circle cx="84" cy="48" r="1.8" fill="#e8b23c" opacity="0.35"/>
<circle cx="84" cy="48" r="1" fill="#e8b23c"/>
<path d="M90 56 Q94 61 97 55" fill="none" stroke="#1a1a1a" stroke-width="1.6"/>
<polygon points="91,55 92,60 93,55" fill="#9aa0a9"/>
<line x1="70.6" y1="55.2" x2="72.1" y2="52.2" stroke="#6a6f78" stroke-width="1.2"/>
<line x1="50" y1="51.5" x2="51" y2="49.4" stroke="#6a6f78" stroke-width="1.2"/>
<line x1="31.2" y1="55.1" x2="32.9" y2="51.8" stroke="#9aa0a9" stroke-width="1.2"/>
<line x1="59.7" y1="70.6" x2="61.2" y2="67.5" stroke="#9aa0a9" stroke-width="1.2"/>
<line x1="58.5" y1="67.3" x2="60" y2="64.2" stroke="#9aa0a9" stroke-width="1.2"/>
<line x1="42.3" y1="60.1" x2="44" y2="56.6" stroke="#9aa0a9" stroke-width="1.2"/>
<line x1="34.2" y1="68.9" x2="35.9" y2="65.5" stroke="#9aa0a9" stroke-width="1.2"/>
<line x1="33.5" y1="61.5" x2="35.1" y2="58.3" stroke="#9aa0a9" stroke-width="1.2"/>
<line x1="22" y1="58.7" x2="23.8" y2="55.2" stroke="#9aa0a9" stroke-width="1.2"/>
</g>
</svg>
