<svg xmlns="http://www.w3.org/2000/svg" viewBox="0 0 64 64">
<!-- Мира (merc_mira, support) — кадр idle_1: целительница с веткой и лечебным свечением, без оружия (контракт memory/000152-merc-assets.md §2) -->
  <title>Мира — поддержка</title>
  <defs>
    <radialGradient id="mrc15_glow" cx="0.5" cy="0.5" r="0.5">
      <stop offset="0" stop-color="#a5e86b" stop-opacity="0.7"/>
      <stop offset="0.6" stop-color="#a5e86b" stop-opacity="0.3"/>
      <stop offset="1" stop-color="#a5e86b" stop-opacity="0"/>
    </radialGradient>
  </defs>
  <ellipse cx="32" cy="61.5" rx="12.5" ry="2.2" fill="#0a0820" opacity="0.35"/>
  <!-- Сапоги -->
  <rect x="25.5" y="53.5" width="5" height="8" rx="1.8" fill="#3f3a33"/>
  <rect x="33.5" y="53.5" width="5" height="8" rx="1.8" fill="#3f3a33"/>
  <line x1="25.5" y1="56" x2="30.5" y2="56" stroke="#2c2822" stroke-width="1"/>
  <line x1="33.5" y1="56" x2="38.5" y2="56" stroke="#2c2822" stroke-width="1"/>
  <!-- Туника (длинная) -->
  <path d="M32 28.5 C26.5 29 24.5 31.5 24 35.5 L23 52.5 L41 52.5 L40 35.5 C39.5 31.5 37.5 29 32 28.5 Z" fill="#5a626e"/>
  <path d="M23 50.5 L41 50.5 L41 52.5 L23 52.5 Z" fill="#4a515c"/>
  <path d="M28 33 C27.2 38.5 26.8 45 26.6 50" stroke="#4a515c" stroke-width="1" fill="none" opacity="0.9"/>
  <path d="M36 33 C36.8 38.5 37.2 45 37.4 50" stroke="#4a515c" stroke-width="1" fill="none" opacity="0.9"/>
  <path d="M32 31 L32 49.5" stroke="#4a515c" stroke-width="0.8" fill="none" opacity="0.6"/>
  <!-- Пояс -->
  <rect x="24" y="43.4" width="16" height="2.2" rx="0.8" fill="#6b4f33"/>
  <circle cx="32" cy="44.5" r="1" fill="#d9a63a"/>
  <!-- Левая рука (вбок) -->
  <path d="M25.5 32.5 C23.8 34 22.8 37 22.4 40 L24.6 40.8 C25 38 25.8 35.6 27.2 34.2 Z" fill="#5a626e"/>
  <circle cx="23" cy="41.8" r="1.9" fill="#f0c49e"/>
  <!-- Ветка в правой руке -->
  <path d="M40.8 26.5 C42 23.5 43.4 19.5 45 14.5" stroke="#6b4f33" stroke-width="1.4" fill="none" stroke-linecap="round"/>
  <path d="M43.2 19.5 L45.4 18.2" stroke="#6b4f33" stroke-width="1.1" fill="none" stroke-linecap="round"/>
  <ellipse cx="45.2" cy="13.8" rx="2.4" ry="1.3" fill="#3a4a3f" transform="rotate(-28 45.2 13.8)"/>
  <ellipse cx="42.4" cy="16.4" rx="2.2" ry="1.2" fill="#3a4a3f" transform="rotate(-55 42.4 16.4)"/>
  <ellipse cx="44.2" cy="20.4" rx="2.2" ry="1.2" fill="#3a4a3f" transform="rotate(-20 44.2 20.4)"/>
  <ellipse cx="41.6" cy="23.2" rx="2" ry="1.1" fill="#3a4a3f" transform="rotate(-55 41.6 23.2)"/>
  <ellipse cx="45.6" cy="18.4" rx="2" ry="1.1" fill="#3a4a3f" transform="rotate(25 45.6 18.4)"/>
  <circle cx="45" cy="12.2" r="4.2" fill="url(#mrc15_glow)"/>
  <circle cx="45" cy="12.2" r="1.1" fill="#d6ffb0"/>
  <path d="M38 31.5 C39.4 29.8 40.2 28.4 40.6 27 L42.4 27.8 C41.8 29.2 40.8 30.8 39.6 32.4 Z" fill="#5a626e"/>
  <circle cx="41.6" cy="25.4" r="1.9" fill="#f0c49e"/>
  <!-- Голова -->
  <rect x="30.7" y="24" width="2.6" height="3" fill="#e8b98a"/>
  <circle cx="32" cy="20" r="5.2" fill="#f0c49e"/>
  <circle cx="26.9" cy="20.5" r="1" fill="#e8b98a"/>
  <circle cx="37.1" cy="20.5" r="1" fill="#e8b98a"/>
  <path d="M32 12.8 C27.4 12.8 25.6 16 25.8 19.8 C26 22.6 25.4 26 24.6 29 L26.8 29.6 C27.4 26.6 27.6 23.8 27.4 21 C27.4 17.4 29.2 15 32 15 C34.8 15 36.6 17.4 36.6 21 C36.6 22.8 36.4 24.8 36 26.8 L38 27.4 C38.4 24.4 38.4 21.6 38.2 19.8 C38 16 36.6 12.8 32 12.8 Z" fill="#c9a06a"/>
  <path d="M25.8 28 C25.4 30.5 25.6 33 26.4 35.4" stroke="#c9a06a" stroke-width="1.6" fill="none" stroke-linecap="round"/>
  <ellipse cx="26" cy="30.4" rx="1.5" ry="1.1" fill="#c9a06a"/>
  <ellipse cx="26.4" cy="33" rx="1.5" ry="1.1" fill="#c9a06a"/>
  <ellipse cx="26.2" cy="35.6" rx="1.4" ry="1" fill="#c9a06a"/>
  <circle cx="26.1" cy="28.6" r="0.7" fill="#3a4a3f"/>
  <ellipse cx="30" cy="20" rx="1" ry="1.1" fill="#ffffff"/>
  <ellipse cx="34" cy="20" rx="1" ry="1.1" fill="#ffffff"/>
  <circle cx="30.1" cy="20.1" r="0.6" fill="#3f6d5a"/>
  <circle cx="34.1" cy="20.1" r="0.6" fill="#3f6d5a"/>
  <path d="M28.9 18.4 Q30 18 31 18.4 M33 18.4 Q34 18 35.1 18.4" stroke="#8a6a3a" stroke-width="0.8" fill="none" stroke-linecap="round"/>
  <path d="M30.8 22.8 Q32 23.8 33.2 22.8" stroke="#8a5c33" stroke-width="0.8" fill="none" stroke-linecap="round"/>
  <!-- Ожерелье и подвеска -->
  <path d="M29.4 26.6 Q32 28 34.6 26.6" stroke="#d9a63a" stroke-width="0.8" fill="none"/>
  <circle cx="32" cy="28" r="0.9" fill="#a5e86b"/>
  <circle cx="27.8" cy="36" r="0.8" fill="#d9a63a"/>
  <circle cx="36.2" cy="36" r="0.8" fill="#d9a63a"/>
</svg>
